<?xml version="1.0" standalone="no"?>
<!DOCTYPE svg PUBLIC "-//W3C//DTD SVG 20010904//EN"
 "http://www.w3.org/TR/2001/REC-SVG-20010904/DTD/svg10.dtd">
<svg version="1.0" xmlns="http://www.w3.org/2000/svg"
 width="2172.000000pt" height="2673.000000pt" viewBox="0 0 2172.000000 2673.000000"
 preserveAspectRatio="xMidYMid meet">

<g transform="translate(0.000000,2673.000000) scale(0.100000,-0.100000)"
fill="#000000" stroke="none">
<path d="M11265 24515 c-5 -2 -54 -17 -107 -34 -160 -51 -393 -155 -778 -348
-800 -400 -1251 -697 -1872 -1230 -670 -576 -1205 -1175 -1653 -1853 -585
-884 -897 -1629 -1089 -2600 -304 -1534 -207 -2726 321 -3965 248 -582 641
-1188 1142 -1760 145 -166 465 -489 650 -657 545 -494 1016 -827 1526 -1078
1166 -573 2472 -767 4050 -600 862 92 1707 281 2590 580 562 191 1093 401
1185 470 23 18 -156 5 -361 -24 -287 -42 -829 -97 -1280 -131 -240 -18 -646
-30 -682 -21 l-27 6 0 605 c0 333 2 605 5 605 15 0 101 -50 195 -113 111 -74
1077 -677 1085 -677 3 0 5 31 5 69 0 65 -2 71 -30 95 -64 54 -698 463 -1092
705 l-168 103 0 444 c0 276 4 444 10 444 17 0 207 -118 565 -350 412 -268 690
-440 709 -440 3 0 6 33 6 73 0 58 -4 77 -17 89 -10 8 -300 194 -645 413 l-628
398 0 449 0 448 36 -15 c19 -8 140 -84 267 -168 413 -274 950 -607 979 -607 4
0 8 31 8 69 0 51 -4 74 -17 89 -10 10 -153 104 -318 207 -165 104 -399 255
-520 336 -121 81 -258 168 -305 195 -47 26 -95 53 -107 61 l-23 13 0 445 c0
245 2 445 5 445 18 0 125 -64 282 -168 351 -233 820 -528 948 -596 l50 -26 3
66 c2 45 -2 73 -11 88 -8 11 -72 57 -143 100 -71 44 -264 168 -429 276 -319
208 -553 357 -647 410 l-58 32 0 414 0 414 -52 -26 c-71 -36 -236 -139 -383
-239 -66 -46 -203 -133 -305 -195 -272 -165 -400 -261 -400 -300 0 -10 21 -37
47 -60 45 -39 249 -169 325 -207 l38 -18 -1 -115 c-1 -63 -4 -143 -8 -177 l-6
-62 -420 267 c-1242 792 -1873 1193 -2073 1318 -122 76 -272 174 -333 216
l-110 77 -852 -550 c-469 -302 -917 -592 -995 -644 -79 -51 -170 -107 -203
-125 l-59 -31 0 180 0 179 74 41 c40 22 147 89 237 149 90 59 234 153 319 207
85 54 256 164 380 245 124 81 358 229 520 330 162 100 364 227 448 283 l152
101 0 170 c0 94 3 228 7 298 6 125 6 127 27 116 12 -6 120 -76 241 -156 121
-79 320 -207 442 -283 122 -76 343 -218 490 -316 651 -429 1263 -813 1296
-813 4 0 7 74 7 165 l0 164 -119 78 c-66 43 -312 201 -548 350 -235 150 -743
475 -1128 721 l-700 449 0 114 0 114 -72 28 -72 29 -68 -37 c-136 -76 -782
-490 -1568 -1005 -210 -138 -331 -210 -353 -210 -9 0 -12 48 -12 173 l0 173
43 24 c86 47 343 211 737 468 913 597 1216 791 1305 834 l45 22 1 200 c1 111
4 226 8 257 l6 56 375 -240 c206 -132 735 -469 1175 -750 440 -280 830 -529
866 -552 l66 -43 7 160 c6 128 5 163 -6 174 -7 7 -179 119 -383 250 -1099 704
-1561 1001 -1788 1148 -139 89 -266 171 -283 181 l-32 18 2 176 c1 156 -1 181
-19 223 l-21 48 -789 -503 c-435 -277 -871 -557 -970 -623 -172 -113 -310
-194 -334 -194 -8 0 -11 51 -11 165 l0 166 193 125 c360 235 865 561 1104 714
131 84 346 224 478 310 132 87 266 171 298 186 l57 28 0 441 c0 243 -3 444 -6
448 -11 10 -79 -29 -299 -173 -115 -75 -649 -421 -1185 -767 -536 -346 -1039
-671 -1117 -722 l-143 -93 -1 -1257 c-1 -691 -5 -2214 -8 -3386 l-6 -2130
-102 103 c-241 243 -553 673 -764 1054 -434 781 -664 1584 -766 2668 -24 261
-24 886 0 1125 50 489 133 883 279 1325 116 351 219 596 407 965 335 656 741
1255 1242 1830 144 166 689 711 924 924 585 531 1156 977 1553 1210 39 24 72
45 72 47 0 5 -20 4 -35 -1z m372 -7978 c219 -140 538 -344 708 -454 171 -110
427 -273 570 -363 381 -239 607 -384 723 -463 l103 -70 -3 -451 c-3 -410 -1
-454 14 -482 23 -43 63 -74 155 -125 43 -23 115 -67 161 -97 l84 -54 -8 -172
c-3 -94 -7 -172 -8 -172 -2 -3 -597 374 -1026 649 -273 175 -1704 1085 -1902
1210 -13 8 -24 5 -51 -16 -19 -14 -123 -81 -232 -147 -108 -67 -278 -175 -376
-241 -99 -66 -245 -160 -324 -210 -80 -49 -281 -178 -448 -287 -375 -246 -499
-324 -604 -380 l-83 -44 0 176 0 175 28 19 c15 11 477 306 1027 656 550 351
1011 645 1025 655 53 37 53 41 51 508 -1 269 2 433 8 433 5 0 188 -114 408
-253z m-207 -1544 c307 -186 602 -374 1602 -1024 257 -167 521 -339 588 -381
l120 -78 0 -1115 0 -1115 -134 0 c-543 0 -1669 183 -2283 372 l-103 31 0 1720
0 1719 23 -14 c12 -8 96 -60 187 -115z"/>
<path d="M7770 22889 c-116 -92 -248 -213 -682 -622 -275 -260 -692 -709
-1007 -1087 -667 -798 -1221 -1694 -1568 -2535 -529 -1284 -670 -2564 -417
-3788 174 -839 505 -1588 1101 -2490 511 -773 1117 -1422 1811 -1939 401 -299
932 -594 1419 -789 627 -251 1303 -399 2063 -450 222 -15 792 -15 1020 0 955
63 1875 251 2855 583 492 167 966 363 1574 652 322 154 662 338 648 353 -6 6
-115 -37 -255 -101 -264 -120 -866 -341 -1268 -466 -928 -288 -1832 -453
-2739 -500 -207 -10 -797 -5 -995 10 -1005 73 -1859 294 -2665 690 -1348 662
-2364 1728 -3149 3300 -447 896 -684 1730 -746 2630 -13 188 -13 607 0 802 73
1090 420 2187 1027 3247 379 662 938 1401 1522 2016 63 66 220 224 350 352
130 128 234 232 231 232 -3 0 -61 -45 -130 -100z"/>
<path d="M2194 7330 c-139 -20 -266 -149 -310 -313 -11 -43 -14 -283 -14
-1433 0 -1241 2 -1386 16 -1435 38 -128 115 -229 213 -276 l56 -28 6208 -3
6207 -2 0 140 0 140 -6177 2 c-5825 3 -6180 4 -6209 20 -19 10 -41 36 -53 61
l-21 43 0 1345 0 1344 23 39 c12 21 38 47 57 57 34 18 281 19 8675 19 8397 0
8641 -1 8675 -19 20 -11 44 -36 57 -61 l23 -44 -2 -1352 c-3 -1348 -3 -1353
-24 -1380 -11 -15 -33 -37 -48 -48 l-27 -21 -1975 -3 -1974 -2 0 -140 0 -140
2003 2 2002 3 50 25 c102 50 187 161 220 287 23 86 23 2770 0 2856 -47 179
-167 296 -327 317 -87 11 -17247 11 -17324 0z"/>
<path d="M10842 6576 c-36 -41 -48 -98 -32 -156 12 -46 49 -89 77 -91 77 -5
98 -1 126 26 55 56 55 169 -1 228 -22 23 -34 27 -83 27 -52 0 -59 -3 -87 -34z"/>
<path d="M2821 6188 c-77 -29 -175 -130 -229 -233 -86 -169 -123 -390 -103
-623 27 -304 138 -516 321 -613 l45 -24 598 -3 597 -3 11 28 c15 37 4 184 -16
222 -8 17 -24 35 -34 41 -13 6 -208 10 -558 10 -351 0 -551 4 -577 11 -47 13
-121 79 -148 133 -46 89 -60 149 -65 271 -7 145 7 240 47 324 42 88 75 127
133 156 l51 25 553 0 554 0 24 26 c39 42 59 186 35 248 l-10 26 -587 -1 c-569
0 -590 -1 -642 -21z"/>
<path d="M4870 6201 c-84 -26 -182 -112 -241 -211 -164 -277 -172 -744 -16
-1045 49 -94 138 -189 212 -226 l50 -24 600 0 600 0 3 90 c4 107 -2 141 -28
175 l-19 25 -568 5 -568 5 -47 27 c-60 36 -119 124 -144 215 -15 53 -19 102
-19 223 0 136 3 163 23 223 30 85 76 153 131 192 l43 30 561 3 c389 1 569 5
584 13 39 21 54 74 51 184 l-3 100 -590 2 c-324 1 -601 -2 -615 -6z"/>
<path d="M6642 6187 c-13 -13 -27 -39 -32 -58 -15 -53 -13 -1412 2 -1427 7 -7
32 -12 55 -12 56 0 87 31 102 101 7 32 11 245 11 589 0 297 4 540 9 540 4 0
253 -260 553 -577 300 -318 564 -595 586 -615 41 -37 45 -38 115 -38 80 0 104
14 126 73 12 30 16 1402 5 1431 -4 12 -20 16 -55 16 -53 0 -81 -19 -99 -66 -6
-15 -10 -251 -10 -582 0 -341 -4 -563 -10 -572 -8 -12 -32 9 -123 105 -62 66
-314 334 -560 595 -246 261 -461 485 -479 498 -25 18 -44 22 -103 22 -62 0
-74 -3 -93 -23z"/>
<path d="M9075 6198 c-141 -50 -263 -215 -323 -437 -24 -89 -26 -112 -26 -306
-1 -187 2 -220 22 -300 49 -192 161 -362 284 -431 l53 -29 480 -3 c543 -3 533
-4 604 73 169 184 173 573 7 753 -78 85 -62 83 -518 80 l-403 -3 -3 -80 c-4
-95 9 -147 45 -174 25 -20 38 -21 389 -21 356 0 364 0 385 -21 49 -49 66 -175
33 -245 -31 -65 -26 -64 -511 -64 -286 0 -452 4 -478 11 -85 23 -147 96 -191
225 -24 70 -27 95 -28 214 -1 189 31 302 110 390 75 83 50 80 652 80 363 0
540 3 554 11 35 19 58 86 58 176 0 45 -3 88 -6 97 -6 14 -66 16 -583 15 -380
0 -586 -4 -606 -11z"/>
<path d="M10883 6188 c-11 -13 -25 -38 -32 -57 -16 -50 -16 -1412 1 -1429 7
-7 32 -12 55 -12 53 0 86 28 102 86 15 53 15 1387 1 1415 -16 29 -99 27 -127
-3z"/>
<path d="M11537 6203 c-13 -12 -7 -173 6 -206 26 -61 -4 -58 596 -58 317 1
551 -3 551 -8 0 -5 -255 -222 -566 -482 -414 -345 -571 -482 -580 -506 -16
-37 -19 -150 -5 -186 6 -14 20 -35 32 -46 23 -21 25 -21 769 -21 567 0 749 3
758 12 17 17 15 160 -1 201 -28 65 3 62 -598 67 l-547 5 197 165 c108 91 363
306 568 478 276 233 374 320 382 344 26 75 3 216 -40 238 -20 11 -1511 14
-1522 3z"/>
<path d="M13668 6193 c-44 -51 -43 -35 -46 -759 -2 -447 1 -700 7 -717 9 -24
16 -27 53 -27 50 1 68 12 94 60 16 31 19 64 22 293 l4 257 611 -2 612 -3 5
-1308 c4 -1096 7 -1309 19 -1316 16 -10 91 -2 108 11 6 5 18 24 27 42 14 31
16 201 16 1744 0 941 -3 1717 -6 1726 -4 12 -20 16 -53 16 -47 0 -69 -14 -97
-60 -5 -8 -11 -134 -14 -280 l-5 -265 -610 0 -610 0 -5 290 c-3 160 -9 296
-13 303 -13 19 -101 15 -119 -5z"/>
<path d="M16365 6191 c-16 -10 -40 -29 -52 -43 -31 -33 -654 -1386 -656 -1423
l-2 -30 84 -3 c83 -3 83 -3 113 30 19 21 131 253 301 623 150 325 277 589 282
589 6 -1 134 -270 285 -599 197 -427 284 -604 303 -621 25 -21 38 -24 107 -24
70 0 79 2 85 20 8 26 -624 1402 -663 1443 -55 59 -130 74 -187 38z"/>
<path d="M17706 6191 c-44 -49 -45 -61 -46 -779 0 -453 3 -690 10 -703 8 -14
21 -19 51 -19 55 0 77 14 100 63 17 40 19 74 19 605 0 355 4 562 10 562 5 0
268 -274 585 -609 316 -335 585 -611 597 -615 13 -3 51 -6 86 -6 67 0 93 15
113 67 10 27 14 1428 3 1444 -3 5 -27 9 -53 9 -52 0 -80 -21 -100 -73 -7 -19
-11 -216 -11 -587 0 -357 -4 -561 -10 -565 -11 -7 -9 -8 -614 635 -235 250
-459 485 -497 523 l-69 67 -78 0 c-65 0 -82 -3 -96 -19z"/>
<path d="M4904 5586 c-51 -36 -59 -185 -13 -231 l24 -24 463 -1 c499 -2 479
-4 508 53 20 37 29 154 15 190 l-11 27 -483 0 c-402 0 -486 -2 -503 -14z"/>
<path d="M7692 3518 c-17 -17 -17 -829 0 -846 30 -30 133 -1 143 41 3 12 6 83
8 157 l2 135 326 3 327 2 213 -165 c120 -92 229 -169 249 -175 46 -13 116 -13
141 0 11 6 19 21 19 35 0 27 -16 41 -302 260 -87 66 -157 125 -157 130 0 6 70
64 156 130 295 226 303 233 303 260 0 31 -26 45 -82 45 -79 0 -110 -18 -313
-176 -110 -85 -208 -160 -217 -165 -10 -5 -153 -8 -340 -7 l-323 3 -2 135 c-2
74 -5 145 -8 157 -10 42 -113 71 -143 41z"/>
<path d="M10205 3523 c-69 -18 -85 -36 -380 -435 -192 -258 -294 -405 -291
-415 5 -12 21 -14 86 -11 73 3 82 6 109 33 16 17 136 174 266 350 130 176 242
320 248 320 7 0 123 -151 260 -335 166 -225 258 -341 280 -352 39 -22 149 -25
165 -5 9 10 -53 101 -269 393 -301 407 -310 419 -350 440 -31 16 -95 25 -124
17z"/>
<path d="M11453 3523 c-8 -3 -13 -25 -13 -58 0 -43 5 -60 24 -82 l24 -28 590
-5 c635 -5 608 -3 632 -60 15 -36 7 -73 -22 -100 -21 -20 -33 -20 -606 -20
l-584 0 -29 -29 -29 -29 0 -221 0 -221 25 -6 c41 -10 92 5 115 33 18 23 20 40
20 169 l0 144 313 0 c307 0 315 0 358 -23 24 -12 125 -85 224 -162 99 -76 196
-145 215 -151 51 -19 135 -18 154 2 34 33 19 51 -154 184 -93 73 -170 136
-170 141 0 5 27 9 60 9 196 0 317 147 266 324 -13 44 -29 70 -69 111 -85 87
-65 85 -746 84 -322 0 -592 -3 -598 -6z"/>
<path d="M13991 3519 c-18 -6 -44 -17 -57 -26 -13 -8 -104 -124 -202 -256 -98
-133 -229 -311 -291 -395 -76 -101 -111 -157 -107 -168 5 -13 19 -16 79 -12
45 2 83 9 98 19 13 9 136 168 273 353 137 185 253 336 257 336 4 0 121 -154
261 -342 280 -378 273 -371 381 -366 55 3 62 5 61 23 0 17 -506 714 -568 783
-43 49 -121 70 -185 51z"/>
<path d="M10164 2966 c-26 -26 -34 -42 -34 -70 0 -53 25 -95 67 -113 47 -19
92 -10 127 26 73 77 20 191 -90 191 -28 0 -44 -8 -70 -34z"/>
<path d="M13964 2966 c-29 -29 -34 -41 -34 -79 0 -54 26 -91 76 -107 63 -21
125 13 145 79 22 73 -34 141 -117 141 -28 0 -44 -8 -70 -34z"/>
</g>
</svg>
